<svg xmlns="http://www.w3.org/2000/svg" xmlns:xlink="http://www.w3.org/1999/xlink" width="2000" zoomAndPan="magnify" viewBox="0 0 1500 1499.999933" height="2000" preserveAspectRatio="xMidYMid meet" version="1.0"><defs><g/><clipPath id="d430f67292"><path d="M 822.464844 671.390625 L 979.214844 671.390625 L 979.214844 828.890625 L 822.464844 828.890625 Z M 822.464844 671.390625 " clip-rule="nonzero"/></clipPath><clipPath id="a7c7bda8e3"><rect x="0" width="930" y="0" height="260"/></clipPath></defs><g clip-path="url(#d430f67292)"><path fill="#16d5db" d="M 900.789062 828.613281 C 857.582031 828.613281 822.515625 796.699219 822.515625 757.378906 C 822.515625 737.796875 831.25 720.089844 845.324219 707.210938 L 845.390625 707.273438 C 848.234375 703.699219 852.828125 701.351562 858.046875 701.351562 C 866.6875 701.351562 873.707031 707.730469 873.707031 715.59375 C 873.707031 720.417969 871.058594 724.667969 867.027344 727.246094 L 867.082031 727.292969 C 858.625 735.042969 853.332031 745.628906 853.332031 757.378906 C 853.332031 781.082031 874.574219 800.328125 900.746094 800.328125 C 926.914062 800.328125 948.148438 781.082031 948.148438 757.378906 C 948.148438 746.652344 943.71875 736.929688 936.519531 729.414062 C 932.238281 726.871094 929.386719 722.492188 929.386719 717.496094 C 929.386719 709.628906 936.40625 703.242188 945.046875 703.242188 C 949.269531 703.242188 953.085938 704.792969 955.902344 707.273438 L 956.125 707.070312 C 970.28125 719.953125 979.050781 737.730469 979.050781 757.378906 C 979.050781 796.699219 943.996094 828.613281 900.789062 828.613281 Z M 900.777344 757.871094 C 892.105469 757.871094 885.128906 751.40625 885.128906 743.367188 L 885.128906 685.902344 C 885.128906 677.863281 892.105469 671.398438 900.777344 671.398438 C 909.449219 671.398438 916.441406 677.863281 916.441406 685.902344 L 916.441406 743.367188 C 916.441406 751.40625 909.449219 757.871094 900.777344 757.871094 Z M 900.777344 757.871094 " fill-opacity="1" fill-rule="evenodd"/></g><g transform="matrix(1, 0, 0, 1, 36, 620)"><g clip-path="url(#a7c7bda8e3)"><g fill="#0f172a" fill-opacity="1"><g transform="translate(1.107855, 204.347128)"><g><path d="M 36.65625 -50.265625 L 36.65625 -27.59375 L 95.390625 -27.59375 L 95.390625 0 L 5.90625 0 L 5.90625 -128.109375 L 95.390625 -128.109375 L 95.390625 -100.515625 L 36.65625 -100.515625 L 36.65625 -77.859375 L 86.53125 -77.859375 L 86.53125 -50.265625 Z M 36.65625 -50.265625 "/></g></g></g><g fill="#0f172a" fill-opacity="1"><g transform="translate(102.41009, 204.347128)"><g><path d="M 36.65625 -27.59375 L 98.34375 -27.59375 L 98.34375 0 L 5.90625 0 L 5.90625 -128.109375 L 36.65625 -128.109375 Z M 36.65625 -27.59375 "/></g></g></g><g fill="#0f172a" fill-opacity="1"><g transform="translate(203.121069, 204.347128)"><g><path d="M 36.65625 -50.265625 L 36.65625 -27.59375 L 95.390625 -27.59375 L 95.390625 0 L 5.90625 0 L 5.90625 -128.109375 L 95.390625 -128.109375 L 95.390625 -100.515625 L 36.65625 -100.515625 L 36.65625 -77.859375 L 86.53125 -77.859375 L 86.53125 -50.265625 Z M 36.65625 -50.265625 "/></g></g></g><g fill="#0f172a" fill-opacity="1"><g transform="translate(295.160244, 204.347128)"><g><path d="M 114.515625 -16.15625 C 102.023438 -5.78125 87.765625 -0.59375 71.734375 -0.59375 C 53.609375 -0.59375 38.109375 -7.03125 25.234375 -19.90625 C 12.347656 -32.78125 5.90625 -48.285156 5.90625 -66.421875 C 5.90625 -84.679688 12.347656 -100.25 25.234375 -113.125 C 38.109375 -126.007812 53.609375 -132.453125 71.734375 -132.453125 C 87.898438 -132.453125 102.160156 -127.191406 114.515625 -116.671875 L 94.796875 -97.171875 C 88.097656 -102.296875 80.410156 -104.859375 71.734375 -104.859375 C 61.222656 -104.859375 52.222656 -101.113281 44.734375 -93.625 C 37.242188 -86.132812 33.5 -77.066406 33.5 -66.421875 C 33.5 -55.910156 37.242188 -46.910156 44.734375 -39.421875 C 52.222656 -31.929688 61.222656 -28.1875 71.734375 -28.1875 C 80.410156 -28.1875 88.097656 -30.75 94.796875 -35.875 Z M 114.515625 -16.15625 "/></g></g></g><g fill="#0f172a" fill-opacity="1"><g transform="translate(414.594428, 204.347128)"><g><path d="M 103.28125 -97.359375 L 69.96875 -97.359375 L 69.96875 0 L 39.21875 0 L 39.21875 -97.359375 L 5.90625 -97.359375 L 5.90625 -128.109375 L 103.28125 -128.109375 Z M 103.28125 -97.359375 "/></g></g></g><g fill="#0f172a" fill-opacity="1"><g transform="translate(522.006305, 204.347128)"><g><path d="M 112.9375 -84.359375 C 112.9375 -76.078125 110.832031 -68.390625 106.625 -61.296875 C 101.5 -52.890625 94.273438 -47.039062 84.953125 -43.75 L 112.546875 0 L 78.046875 0 L 51.25 -40.796875 L 36.65625 -40.796875 L 36.65625 0 L 5.90625 0 L 5.90625 -128.109375 L 67.203125 -128.109375 C 81.796875 -128.109375 93.359375 -123.3125 101.890625 -113.71875 C 109.253906 -105.3125 112.9375 -95.523438 112.9375 -84.359375 Z M 36.65625 -100.515625 L 36.65625 -68.390625 L 67.015625 -68.390625 C 71.210938 -68.390625 74.5625 -68.984375 77.0625 -70.171875 C 79.164062 -71.347656 80.675781 -72.460938 81.59375 -73.515625 C 82.90625 -75.085938 83.890625 -76.925781 84.546875 -79.03125 C 85.078125 -80.875 85.34375 -82.648438 85.34375 -84.359375 C 85.34375 -86.191406 85.078125 -88.03125 84.546875 -89.875 C 83.765625 -91.976562 82.648438 -93.816406 81.203125 -95.390625 C 78.304688 -98.804688 73.640625 -100.515625 67.203125 -100.515625 Z M 36.65625 -100.515625 "/></g></g></g><g fill="#0f172a" fill-opacity="1"><g transform="translate(636.907474, 204.347128)"><g><path d="M 68.984375 -127.515625 C 87.242188 -127.515625 102.8125 -121.078125 115.6875 -108.203125 C 128.570312 -95.328125 135.015625 -79.757812 135.015625 -61.5 C 135.015625 -43.226562 128.570312 -27.65625 115.6875 -14.78125 C 102.8125 -1.90625 87.242188 4.53125 68.984375 4.53125 C 50.722656 4.53125 35.148438 -1.90625 22.265625 -14.78125 C 9.390625 -27.65625 2.953125 -43.226562 2.953125 -61.5 C 2.953125 -79.757812 9.390625 -95.328125 22.265625 -108.203125 C 35.148438 -121.078125 50.722656 -127.515625 68.984375 -127.515625 Z M 96.1875 -34.296875 C 103.675781 -41.785156 107.421875 -50.851562 107.421875 -61.5 C 107.421875 -72.132812 103.675781 -81.195312 96.1875 -88.6875 C 88.695312 -96.175781 79.628906 -99.921875 68.984375 -99.921875 C 58.335938 -99.921875 49.269531 -96.175781 41.78125 -88.6875 C 34.289062 -81.195312 30.546875 -72.132812 30.546875 -61.5 C 30.546875 -50.851562 34.289062 -41.785156 41.78125 -34.296875 C 49.53125 -26.804688 58.597656 -23.0625 68.984375 -23.0625 C 79.359375 -23.0625 88.425781 -26.804688 96.1875 -34.296875 Z M 96.1875 -34.296875 "/></g></g></g><g fill="#0f172a" fill-opacity="1"><g transform="translate(774.879698, 204.347128)"><g/></g></g><g fill="#0f172a" fill-opacity="1"><g transform="translate(826.122071, 204.347128)"><g/></g></g><g fill="#0f172a" fill-opacity="1"><g transform="translate(877.364444, 204.347128)"><g/></g></g></g></g><g fill="#737373" fill-opacity="1"><g transform="translate(979.112229, 821.999909)"><g><path d="M 60.484375 -107.609375 L 60.484375 0 L 44.21875 0 L 44.21875 -107.609375 L 3.625 -107.609375 L 3.625 -122.375 L 101.0625 -122.375 L 101.0625 -107.609375 Z M 60.484375 -107.609375 "/></g></g></g><g fill="#737373" fill-opacity="1"><g transform="translate(1083.798011, 821.999909)"><g><path d="M 16.09375 0 L 16.09375 -122.375 L 90.90625 -122.375 L 90.90625 -107.609375 L 32.453125 -107.609375 L 32.453125 -71.890625 L 82.40625 -71.890625 L 82.40625 -57.03125 L 32.453125 -57.03125 L 32.453125 -14.859375 L 90.90625 -14.859375 L 90.90625 0 Z M 16.09375 0 "/></g></g></g><g fill="#737373" fill-opacity="1"><g transform="translate(1185.742865, 821.999909)"><g><path d="M 109.90625 -21.40625 C 106.019531 -15.15625 102.054688 -10.421875 98.015625 -7.203125 C 93.984375 -3.992188 89.285156 -1.566406 83.921875 0.078125 C 78.554688 1.734375 72.242188 2.5625 64.984375 2.5625 C 46.648438 2.5625 33.132812 -2.726562 24.4375 -13.3125 C 15.75 -23.894531 11.40625 -39.851562 11.40625 -61.1875 C 11.40625 -82.46875 15.722656 -98.410156 24.359375 -109.015625 C 32.992188 -119.628906 46.300781 -124.9375 64.28125 -124.9375 C 71.414062 -124.9375 77.78125 -124.050781 83.375 -122.28125 C 88.976562 -120.519531 93.710938 -118.09375 97.578125 -115 C 101.441406 -111.90625 104.960938 -107.554688 108.140625 -101.953125 L 94.703125 -93.109375 C 92.109375 -97.472656 89.484375 -100.789062 86.828125 -103.0625 C 84.179688 -105.332031 81 -107.128906 77.28125 -108.453125 C 73.570312 -109.773438 69.238281 -110.4375 64.28125 -110.4375 C 52.019531 -110.4375 43.015625 -106.351562 37.265625 -98.1875 C 31.523438 -90.03125 28.65625 -77.695312 28.65625 -61.1875 C 28.65625 -44.914062 31.484375 -32.640625 37.140625 -24.359375 C 42.796875 -16.078125 51.90625 -11.9375 64.46875 -11.9375 C 71.414062 -11.9375 77.453125 -13.304688 82.578125 -16.046875 C 87.710938 -18.785156 92.316406 -23.515625 96.390625 -30.234375 Z M 109.90625 -21.40625 "/></g></g></g><g fill="#737373" fill-opacity="1"><g transform="translate(1302.541782, 821.999909)"><g><path d="M 88.15625 0 L 88.15625 -55.96875 L 32.453125 -55.96875 L 32.453125 0 L 16.09375 0 L 16.09375 -122.375 L 32.453125 -122.375 L 32.453125 -70.828125 L 88.15625 -70.828125 L 88.15625 -122.375 L 104.515625 -122.375 L 104.515625 0 Z M 88.15625 0 "/></g></g></g><g fill="#737373" fill-opacity="1"><g transform="translate(347.162113, 931.237052)"><g><path d="M 32.5625 0 L 5.84375 0 L 5.84375 -46.40625 L 32.5625 -46.40625 L 32.5625 -38.34375 L 15.671875 -38.34375 L 15.671875 -28.15625 L 31.390625 -28.15625 L 31.390625 -20.09375 L 15.671875 -20.09375 L 15.671875 -8.125 L 32.5625 -8.125 Z M 32.5625 0 "/></g></g></g><g fill="#737373" fill-opacity="1"><g transform="translate(383.561543, 931.237052)"><g><path d="M 14.765625 0 L 5.078125 0 L 5.078125 -49.390625 L 14.765625 -49.390625 Z M 14.765625 0 "/></g></g></g><g fill="#737373" fill-opacity="1"><g transform="translate(403.395583, 931.237052)"><g><path d="M 19.765625 -29.265625 C 17.710938 -29.265625 16.101562 -28.613281 14.9375 -27.3125 C 13.78125 -26.007812 13.117188 -24.160156 12.953125 -21.765625 L 26.53125 -21.765625 C 26.488281 -24.160156 25.863281 -26.007812 24.65625 -27.3125 C 23.457031 -28.613281 21.828125 -29.265625 19.765625 -29.265625 Z M 21.140625 0.640625 C 15.421875 0.640625 10.953125 -0.9375 7.734375 -4.09375 C 4.523438 -7.25 2.921875 -11.710938 2.921875 -17.484375 C 2.921875 -23.429688 4.40625 -28.03125 7.375 -31.28125 C 10.351562 -34.53125 14.460938 -36.15625 19.703125 -36.15625 C 24.722656 -36.15625 28.628906 -34.722656 31.421875 -31.859375 C 34.210938 -29.003906 35.609375 -25.0625 35.609375 -20.03125 L 35.609375 -15.328125 L 12.734375 -15.328125 C 12.835938 -12.578125 13.648438 -10.425781 15.171875 -8.875 C 16.691406 -7.332031 18.828125 -6.5625 21.578125 -6.5625 C 23.710938 -6.5625 25.734375 -6.785156 27.640625 -7.234375 C 29.546875 -7.679688 31.535156 -8.390625 33.609375 -9.359375 L 33.609375 -1.875 C 31.921875 -1.03125 30.113281 -0.398438 28.1875 0.015625 C 26.257812 0.429688 23.910156 0.640625 21.140625 0.640625 Z M 21.140625 0.640625 "/></g></g></g><g fill="#737373" fill-opacity="1"><g transform="translate(441.794285, 931.237052)"><g><path d="M 19.484375 0.640625 C 8.441406 0.640625 2.921875 -5.421875 2.921875 -17.546875 C 2.921875 -23.578125 4.421875 -28.1875 7.421875 -31.375 C 10.429688 -34.5625 14.738281 -36.15625 20.34375 -36.15625 C 24.445312 -36.15625 28.128906 -35.347656 31.390625 -33.734375 L 28.53125 -26.25 C 27.007812 -26.863281 25.59375 -27.363281 24.28125 -27.75 C 22.96875 -28.144531 21.65625 -28.34375 20.34375 -28.34375 C 15.3125 -28.34375 12.796875 -24.765625 12.796875 -17.609375 C 12.796875 -10.671875 15.3125 -7.203125 20.34375 -7.203125 C 22.207031 -7.203125 23.929688 -7.453125 25.515625 -7.953125 C 27.097656 -8.453125 28.6875 -9.226562 30.28125 -10.28125 L 30.28125 -2 C 28.71875 -1.007812 27.132812 -0.320312 25.53125 0.0625 C 23.9375 0.445312 21.921875 0.640625 19.484375 0.640625 Z M 19.484375 0.640625 "/></g></g></g><g fill="#737373" fill-opacity="1"><g transform="translate(475.210675, 931.237052)"><g><path d="M 20.03125 -7.078125 C 21.71875 -7.078125 23.75 -7.445312 26.125 -8.1875 L 26.125 -0.984375 C 23.707031 0.0976562 20.742188 0.640625 17.234375 0.640625 C 13.359375 0.640625 10.535156 -0.335938 8.765625 -2.296875 C 7.003906 -4.253906 6.125 -7.191406 6.125 -11.109375 L 6.125 -28.21875 L 1.484375 -28.21875 L 1.484375 -32.3125 L 6.828125 -35.546875 L 9.609375 -43.03125 L 15.8125 -43.03125 L 15.8125 -35.484375 L 25.734375 -35.484375 L 25.734375 -28.21875 L 15.8125 -28.21875 L 15.8125 -11.109375 C 15.8125 -9.734375 16.195312 -8.71875 16.96875 -8.0625 C 17.738281 -7.40625 18.757812 -7.078125 20.03125 -7.078125 Z M 20.03125 -7.078125 "/></g></g></g><g fill="#737373" fill-opacity="1"><g transform="translate(503.422614, 931.237052)"><g><path d="M 24.890625 -36.15625 C 26.191406 -36.15625 27.28125 -36.054688 28.15625 -35.859375 L 27.421875 -26.78125 C 26.640625 -27 25.6875 -27.109375 24.5625 -27.109375 C 21.476562 -27.109375 19.070312 -26.3125 17.34375 -24.71875 C 15.625 -23.132812 14.765625 -20.914062 14.765625 -18.0625 L 14.765625 0 L 5.078125 0 L 5.078125 -35.484375 L 12.40625 -35.484375 L 13.84375 -29.515625 L 14.3125 -29.515625 C 15.414062 -31.503906 16.898438 -33.109375 18.765625 -34.328125 C 20.640625 -35.546875 22.679688 -36.15625 24.890625 -36.15625 Z M 24.890625 -36.15625 "/></g></g></g><g fill="#737373" fill-opacity="1"><g transform="translate(532.935665, 931.237052)"><g><path d="M 12.796875 -17.8125 C 12.796875 -14.289062 13.367188 -11.628906 14.515625 -9.828125 C 15.671875 -8.035156 17.550781 -7.140625 20.15625 -7.140625 C 22.738281 -7.140625 24.59375 -8.03125 25.71875 -9.8125 C 26.851562 -11.601562 27.421875 -14.269531 27.421875 -17.8125 C 27.421875 -21.320312 26.847656 -23.953125 25.703125 -25.703125 C 24.566406 -27.460938 22.695312 -28.34375 20.09375 -28.34375 C 17.507812 -28.34375 15.644531 -27.46875 14.5 -25.71875 C 13.363281 -23.976562 12.796875 -21.34375 12.796875 -17.8125 Z M 37.328125 -17.8125 C 37.328125 -12.03125 35.800781 -7.507812 32.75 -4.25 C 29.707031 -0.988281 25.46875 0.640625 20.03125 0.640625 C 16.625 0.640625 13.617188 -0.101562 11.015625 -1.59375 C 8.410156 -3.09375 6.410156 -5.238281 5.015625 -8.03125 C 3.617188 -10.820312 2.921875 -14.082031 2.921875 -17.8125 C 2.921875 -23.601562 4.429688 -28.109375 7.453125 -31.328125 C 10.484375 -34.546875 14.738281 -36.15625 20.21875 -36.15625 C 23.625 -36.15625 26.628906 -35.410156 29.234375 -33.921875 C 31.835938 -32.441406 33.835938 -30.316406 35.234375 -27.546875 C 36.628906 -24.773438 37.328125 -21.53125 37.328125 -17.8125 Z M 37.328125 -17.8125 "/></g></g></g><g fill="#737373" fill-opacity="1"><g transform="translate(573.174966, 931.237052)"><g><path d="M 37.828125 0 L 28.15625 0 L 28.15625 -20.71875 C 28.15625 -23.28125 27.695312 -25.203125 26.78125 -26.484375 C 25.875 -27.765625 24.425781 -28.40625 22.4375 -28.40625 C 19.726562 -28.40625 17.769531 -27.5 16.5625 -25.6875 C 15.363281 -23.882812 14.765625 -20.882812 14.765625 -16.6875 L 14.765625 0 L 5.078125 0 L 5.078125 -35.484375 L 12.46875 -35.484375 L 13.78125 -30.9375 L 14.3125 -30.9375 C 15.394531 -32.65625 16.878906 -33.953125 18.765625 -34.828125 C 20.660156 -35.710938 22.816406 -36.15625 25.234375 -36.15625 C 29.359375 -36.15625 32.488281 -35.035156 34.625 -32.796875 C 36.757812 -30.566406 37.828125 -27.347656 37.828125 -23.140625 Z M 37.828125 0 "/></g></g></g><g fill="#737373" fill-opacity="1"><g transform="translate(615.889554, 931.237052)"><g><path d="M 4.671875 -44.65625 C 4.671875 -47.8125 6.425781 -49.390625 9.9375 -49.390625 C 13.445312 -49.390625 15.203125 -47.8125 15.203125 -44.65625 C 15.203125 -43.15625 14.757812 -41.984375 13.875 -41.140625 C 13 -40.304688 11.6875 -39.890625 9.9375 -39.890625 C 6.425781 -39.890625 4.671875 -41.476562 4.671875 -44.65625 Z M 14.765625 0 L 5.078125 0 L 5.078125 -35.484375 L 14.765625 -35.484375 Z M 14.765625 0 "/></g></g></g><g fill="#737373" fill-opacity="1"><g transform="translate(635.723582, 931.237052)"><g><path d="M 19.484375 0.640625 C 8.441406 0.640625 2.921875 -5.421875 2.921875 -17.546875 C 2.921875 -23.578125 4.421875 -28.1875 7.421875 -31.375 C 10.429688 -34.5625 14.738281 -36.15625 20.34375 -36.15625 C 24.445312 -36.15625 28.128906 -35.347656 31.390625 -33.734375 L 28.53125 -26.25 C 27.007812 -26.863281 25.59375 -27.363281 24.28125 -27.75 C 22.96875 -28.144531 21.65625 -28.34375 20.34375 -28.34375 C 15.3125 -28.34375 12.796875 -24.765625 12.796875 -17.609375 C 12.796875 -10.671875 15.3125 -7.203125 20.34375 -7.203125 C 22.207031 -7.203125 23.929688 -7.453125 25.515625 -7.953125 C 27.097656 -8.453125 28.6875 -9.226562 30.28125 -10.28125 L 30.28125 -2 C 28.71875 -1.007812 27.132812 -0.320312 25.53125 0.0625 C 23.9375 0.445312 21.921875 0.640625 19.484375 0.640625 Z M 19.484375 0.640625 "/></g></g></g><g fill="#737373" fill-opacity="1"><g transform="translate(669.139984, 931.237052)"><g><path d="M 29.828125 -10.53125 C 29.828125 -6.894531 28.5625 -4.125 26.03125 -2.21875 C 23.507812 -0.3125 19.726562 0.640625 14.6875 0.640625 C 12.113281 0.640625 9.914062 0.460938 8.09375 0.109375 C 6.269531 -0.234375 4.566406 -0.742188 2.984375 -1.421875 L 2.984375 -9.421875 C 4.785156 -8.578125 6.8125 -7.867188 9.0625 -7.296875 C 11.3125 -6.722656 13.296875 -6.4375 15.015625 -6.4375 C 18.523438 -6.4375 20.28125 -7.453125 20.28125 -9.484375 C 20.28125 -10.242188 20.046875 -10.863281 19.578125 -11.34375 C 19.117188 -11.820312 18.316406 -12.363281 17.171875 -12.96875 C 16.023438 -13.570312 14.5 -14.273438 12.59375 -15.078125 C 9.863281 -16.222656 7.859375 -17.28125 6.578125 -18.25 C 5.304688 -19.21875 4.378906 -20.332031 3.796875 -21.59375 C 3.210938 -22.851562 2.921875 -24.40625 2.921875 -26.25 C 2.921875 -29.40625 4.140625 -31.84375 6.578125 -33.5625 C 9.023438 -35.289062 12.492188 -36.15625 16.984375 -36.15625 C 21.253906 -36.15625 25.410156 -35.222656 29.453125 -33.359375 L 26.53125 -26.375 C 24.757812 -27.132812 23.097656 -27.757812 21.546875 -28.25 C 20.003906 -28.738281 18.429688 -28.984375 16.828125 -28.984375 C 13.960938 -28.984375 12.53125 -28.207031 12.53125 -26.65625 C 12.53125 -25.789062 12.988281 -25.039062 13.90625 -24.40625 C 14.832031 -23.769531 16.851562 -22.828125 19.96875 -21.578125 C 22.738281 -20.460938 24.769531 -19.414062 26.0625 -18.4375 C 27.351562 -17.46875 28.300781 -16.347656 28.90625 -15.078125 C 29.519531 -13.804688 29.828125 -12.289062 29.828125 -10.53125 Z M 29.828125 -10.53125 "/></g></g></g><g fill="#737373" fill-opacity="1"><g transform="translate(701.445668, 931.237052)"><g/></g></g><g fill="#737373" fill-opacity="1"><g transform="translate(718.328403, 931.237052)"><g><path d="M 48.75 0 L 36.78125 0 L 33.140625 -3.59375 C 29.097656 -0.769531 24.523438 0.640625 19.421875 0.640625 C 14.265625 0.640625 10.171875 -0.539062 7.140625 -2.90625 C 4.117188 -5.28125 2.609375 -8.488281 2.609375 -12.53125 C 2.609375 -15.4375 3.242188 -17.910156 4.515625 -19.953125 C 5.796875 -21.992188 7.992188 -23.898438 11.109375 -25.671875 C 9.523438 -27.492188 8.367188 -29.234375 7.640625 -30.890625 C 6.921875 -32.554688 6.5625 -34.375 6.5625 -36.34375 C 6.5625 -39.5625 7.796875 -42.148438 10.265625 -44.109375 C 12.734375 -46.078125 16.03125 -47.0625 20.15625 -47.0625 C 24.09375 -47.0625 27.238281 -46.144531 29.59375 -44.3125 C 31.957031 -42.488281 33.140625 -40.039062 33.140625 -36.96875 C 33.140625 -34.457031 32.40625 -32.160156 30.9375 -30.078125 C 29.476562 -27.992188 27.125 -26.007812 23.875 -24.125 L 32.875 -15.328125 C 34.382812 -17.804688 35.6875 -20.992188 36.78125 -24.890625 L 46.875 -24.890625 C 46.113281 -22.023438 45.066406 -19.234375 43.734375 -16.515625 C 42.398438 -13.796875 40.890625 -11.390625 39.203125 -9.296875 Z M 12.796875 -13.453125 C 12.796875 -11.640625 13.476562 -10.191406 14.84375 -9.109375 C 16.207031 -8.023438 17.957031 -7.484375 20.09375 -7.484375 C 22.757812 -7.484375 25.160156 -8.128906 27.296875 -9.421875 L 16.765625 -19.90625 C 15.535156 -18.96875 14.566406 -17.988281 13.859375 -16.96875 C 13.148438 -15.957031 12.796875 -14.785156 12.796875 -13.453125 Z M 24.1875 -35.953125 C 24.1875 -37.078125 23.804688 -37.960938 23.046875 -38.609375 C 22.285156 -39.253906 21.300781 -39.578125 20.09375 -39.578125 C 18.675781 -39.578125 17.554688 -39.238281 16.734375 -38.5625 C 15.921875 -37.882812 15.515625 -36.921875 15.515625 -35.671875 C 15.515625 -33.804688 16.519531 -31.753906 18.53125 -29.515625 C 20.351562 -30.535156 21.75 -31.535156 22.71875 -32.515625 C 23.695312 -33.492188 24.1875 -34.640625 24.1875 -35.953125 Z M 24.1875 -35.953125 "/></g></g></g><g fill="#737373" fill-opacity="1"><g transform="translate(767.07254, 931.237052)"><g/></g></g><g fill="#737373" fill-opacity="1"><g transform="translate(783.955274, 931.237052)"><g><path d="M 23.734375 0 L 13.90625 0 L 13.90625 -38.21875 L 1.296875 -38.21875 L 1.296875 -46.40625 L 36.34375 -46.40625 L 36.34375 -38.21875 L 23.734375 -38.21875 Z M 23.734375 0 "/></g></g></g><g fill="#737373" fill-opacity="1"><g transform="translate(821.592371, 931.237052)"><g><path d="M 19.765625 -29.265625 C 17.710938 -29.265625 16.101562 -28.613281 14.9375 -27.3125 C 13.78125 -26.007812 13.117188 -24.160156 12.953125 -21.765625 L 26.53125 -21.765625 C 26.488281 -24.160156 25.863281 -26.007812 24.65625 -27.3125 C 23.457031 -28.613281 21.828125 -29.265625 19.765625 -29.265625 Z M 21.140625 0.640625 C 15.421875 0.640625 10.953125 -0.9375 7.734375 -4.09375 C 4.523438 -7.25 2.921875 -11.710938 2.921875 -17.484375 C 2.921875 -23.429688 4.40625 -28.03125 7.375 -31.28125 C 10.351562 -34.53125 14.460938 -36.15625 19.703125 -36.15625 C 24.722656 -36.15625 28.628906 -34.722656 31.421875 -31.859375 C 34.210938 -29.003906 35.609375 -25.0625 35.609375 -20.03125 L 35.609375 -15.328125 L 12.734375 -15.328125 C 12.835938 -12.578125 13.648438 -10.425781 15.171875 -8.875 C 16.691406 -7.332031 18.828125 -6.5625 21.578125 -6.5625 C 23.710938 -6.5625 25.734375 -6.785156 27.640625 -7.234375 C 29.546875 -7.679688 31.535156 -8.390625 33.609375 -9.359375 L 33.609375 -1.875 C 31.921875 -1.03125 30.113281 -0.398438 28.1875 0.015625 C 26.257812 0.429688 23.910156 0.640625 21.140625 0.640625 Z M 21.140625 0.640625 "/></g></g></g><g fill="#737373" fill-opacity="1"><g transform="translate(859.991049, 931.237052)"><g><path d="M 19.484375 0.640625 C 8.441406 0.640625 2.921875 -5.421875 2.921875 -17.546875 C 2.921875 -23.578125 4.421875 -28.1875 7.421875 -31.375 C 10.429688 -34.5625 14.738281 -36.15625 20.34375 -36.15625 C 24.445312 -36.15625 28.128906 -35.347656 31.390625 -33.734375 L 28.53125 -26.25 C 27.007812 -26.863281 25.59375 -27.363281 24.28125 -27.75 C 22.96875 -28.144531 21.65625 -28.34375 20.34375 -28.34375 C 15.3125 -28.34375 12.796875 -24.765625 12.796875 -17.609375 C 12.796875 -10.671875 15.3125 -7.203125 20.34375 -7.203125 C 22.207031 -7.203125 23.929688 -7.453125 25.515625 -7.953125 C 27.097656 -8.453125 28.6875 -9.226562 30.28125 -10.28125 L 30.28125 -2 C 28.71875 -1.007812 27.132812 -0.320312 25.53125 0.0625 C 23.9375 0.445312 21.921875 0.640625 19.484375 0.640625 Z M 19.484375 0.640625 "/></g></g></g><g fill="#737373" fill-opacity="1"><g transform="translate(893.407428, 931.237052)"><g><path d="M 37.828125 0 L 28.15625 0 L 28.15625 -20.71875 C 28.15625 -25.84375 26.25 -28.40625 22.4375 -28.40625 C 19.726562 -28.40625 17.769531 -27.484375 16.5625 -25.640625 C 15.363281 -23.804688 14.765625 -20.820312 14.765625 -16.6875 L 14.765625 0 L 5.078125 0 L 5.078125 -49.390625 L 14.765625 -49.390625 L 14.765625 -39.328125 C 14.765625 -38.546875 14.6875 -36.703125 14.53125 -33.796875 L 14.3125 -30.9375 L 14.828125 -30.9375 C 16.984375 -34.414062 20.410156 -36.15625 25.109375 -36.15625 C 29.273438 -36.15625 32.4375 -35.03125 34.59375 -32.78125 C 36.75 -30.539062 37.828125 -27.328125 37.828125 -23.140625 Z M 37.828125 0 "/></g></g></g><g fill="#737373" fill-opacity="1"><g transform="translate(936.12204, 931.237052)"><g><path d="M 37.828125 0 L 28.15625 0 L 28.15625 -20.71875 C 28.15625 -23.28125 27.695312 -25.203125 26.78125 -26.484375 C 25.875 -27.765625 24.425781 -28.40625 22.4375 -28.40625 C 19.726562 -28.40625 17.769531 -27.5 16.5625 -25.6875 C 15.363281 -23.882812 14.765625 -20.882812 14.765625 -16.6875 L 14.765625 0 L 5.078125 0 L 5.078125 -35.484375 L 12.46875 -35.484375 L 13.78125 -30.9375 L 14.3125 -30.9375 C 15.394531 -32.65625 16.878906 -33.953125 18.765625 -34.828125 C 20.660156 -35.710938 22.816406 -36.15625 25.234375 -36.15625 C 29.359375 -36.15625 32.488281 -35.035156 34.625 -32.796875 C 36.757812 -30.566406 37.828125 -27.347656 37.828125 -23.140625 Z M 37.828125 0 "/></g></g></g><g fill="#737373" fill-opacity="1"><g transform="translate(978.836605, 931.237052)"><g><path d="M 12.796875 -17.8125 C 12.796875 -14.289062 13.367188 -11.628906 14.515625 -9.828125 C 15.671875 -8.035156 17.550781 -7.140625 20.15625 -7.140625 C 22.738281 -7.140625 24.59375 -8.03125 25.71875 -9.8125 C 26.851562 -11.601562 27.421875 -14.269531 27.421875 -17.8125 C 27.421875 -21.320312 26.847656 -23.953125 25.703125 -25.703125 C 24.566406 -27.460938 22.695312 -28.34375 20.09375 -28.34375 C 17.507812 -28.34375 15.644531 -27.46875 14.5 -25.71875 C 13.363281 -23.976562 12.796875 -21.34375 12.796875 -17.8125 Z M 37.328125 -17.8125 C 37.328125 -12.03125 35.800781 -7.507812 32.75 -4.25 C 29.707031 -0.988281 25.46875 0.640625 20.03125 0.640625 C 16.625 0.640625 13.617188 -0.101562 11.015625 -1.59375 C 8.410156 -3.09375 6.410156 -5.238281 5.015625 -8.03125 C 3.617188 -10.820312 2.921875 -14.082031 2.921875 -17.8125 C 2.921875 -23.601562 4.429688 -28.109375 7.453125 -31.328125 C 10.484375 -34.546875 14.738281 -36.15625 20.21875 -36.15625 C 23.625 -36.15625 26.628906 -35.410156 29.234375 -33.921875 C 31.835938 -32.441406 33.835938 -30.316406 35.234375 -27.546875 C 36.628906 -24.773438 37.328125 -21.53125 37.328125 -17.8125 Z M 37.328125 -17.8125 "/></g></g></g><g fill="#737373" fill-opacity="1"><g transform="translate(1019.075906, 931.237052)"><g><path d="M 14.765625 0 L 5.078125 0 L 5.078125 -49.390625 L 14.765625 -49.390625 Z M 14.765625 0 "/></g></g></g><g fill="#737373" fill-opacity="1"><g transform="translate(1038.90998, 931.237052)"><g><path d="M 12.796875 -17.8125 C 12.796875 -14.289062 13.367188 -11.628906 14.515625 -9.828125 C 15.671875 -8.035156 17.550781 -7.140625 20.15625 -7.140625 C 22.738281 -7.140625 24.59375 -8.03125 25.71875 -9.8125 C 26.851562 -11.601562 27.421875 -14.269531 27.421875 -17.8125 C 27.421875 -21.320312 26.847656 -23.953125 25.703125 -25.703125 C 24.566406 -27.460938 22.695312 -28.34375 20.09375 -28.34375 C 17.507812 -28.34375 15.644531 -27.46875 14.5 -25.71875 C 13.363281 -23.976562 12.796875 -21.34375 12.796875 -17.8125 Z M 37.328125 -17.8125 C 37.328125 -12.03125 35.800781 -7.507812 32.75 -4.25 C 29.707031 -0.988281 25.46875 0.640625 20.03125 0.640625 C 16.625 0.640625 13.617188 -0.101562 11.015625 -1.59375 C 8.410156 -3.09375 6.410156 -5.238281 5.015625 -8.03125 C 3.617188 -10.820312 2.921875 -14.082031 2.921875 -17.8125 C 2.921875 -23.601562 4.429688 -28.109375 7.453125 -31.328125 C 10.484375 -34.546875 14.738281 -36.15625 20.21875 -36.15625 C 23.625 -36.15625 26.628906 -35.410156 29.234375 -33.921875 C 31.835938 -32.441406 33.835938 -30.316406 35.234375 -27.546875 C 36.628906 -24.773438 37.328125 -21.53125 37.328125 -17.8125 Z M 37.328125 -17.8125 "/></g></g></g><g fill="#737373" fill-opacity="1"><g transform="translate(1079.149235, 931.237052)"><g><path d="M 35.953125 -35.484375 L 35.953125 -30.5625 L 30.40625 -29.140625 C 31.414062 -27.546875 31.921875 -25.765625 31.921875 -23.796875 C 31.921875 -19.992188 30.59375 -17.03125 27.9375 -14.90625 C 25.289062 -12.78125 21.609375 -11.71875 16.890625 -11.71875 L 15.140625 -11.8125 L 13.71875 -11.96875 C 12.71875 -11.207031 12.21875 -10.359375 12.21875 -9.421875 C 12.21875 -8.023438 13.992188 -7.328125 17.546875 -7.328125 L 23.578125 -7.328125 C 27.472656 -7.328125 30.441406 -6.488281 32.484375 -4.8125 C 34.523438 -3.144531 35.546875 -0.691406 35.546875 2.546875 C 35.546875 6.691406 33.816406 9.90625 30.359375 12.1875 C 26.898438 14.46875 21.929688 15.609375 15.453125 15.609375 C 10.503906 15.609375 6.722656 14.742188 4.109375 13.015625 C 1.492188 11.296875 0.1875 8.882812 0.1875 5.78125 C 0.1875 3.644531 0.851562 1.851562 2.1875 0.40625 C 3.519531 -1.03125 5.476562 -2.054688 8.0625 -2.671875 C 7.0625 -3.085938 6.191406 -3.773438 5.453125 -4.734375 C 4.710938 -5.703125 4.34375 -6.726562 4.34375 -7.8125 C 4.34375 -9.164062 4.734375 -10.289062 5.515625 -11.1875 C 6.304688 -12.082031 7.441406 -12.96875 8.921875 -13.84375 C 7.054688 -14.644531 5.578125 -15.929688 4.484375 -17.703125 C 3.398438 -19.484375 2.859375 -21.582031 2.859375 -24 C 2.859375 -27.863281 4.113281 -30.851562 6.625 -32.96875 C 9.144531 -35.09375 12.742188 -36.15625 17.421875 -36.15625 C 18.421875 -36.15625 19.601562 -36.0625 20.96875 -35.875 C 22.332031 -35.695312 23.203125 -35.566406 23.578125 -35.484375 Z M 8.5625 5.015625 C 8.5625 6.347656 9.203125 7.394531 10.484375 8.15625 C 11.765625 8.914062 13.5625 9.296875 15.875 9.296875 C 19.34375 9.296875 22.0625 8.816406 24.03125 7.859375 C 26 6.910156 26.984375 5.613281 26.984375 3.96875 C 26.984375 2.632812 26.398438 1.710938 25.234375 1.203125 C 24.066406 0.691406 22.269531 0.4375 19.84375 0.4375 L 14.828125 0.4375 C 13.046875 0.4375 11.554688 0.851562 10.359375 1.6875 C 9.160156 2.53125 8.5625 3.640625 8.5625 5.015625 Z M 12.09375 -23.875 C 12.09375 -21.945312 12.53125 -20.421875 13.40625 -19.296875 C 14.289062 -18.171875 15.628906 -17.609375 17.421875 -17.609375 C 19.242188 -17.609375 20.578125 -18.171875 21.421875 -19.296875 C 22.265625 -20.421875 22.6875 -21.945312 22.6875 -23.875 C 22.6875 -28.144531 20.929688 -30.28125 17.421875 -30.28125 C 13.867188 -30.28125 12.09375 -28.144531 12.09375 -23.875 Z M 12.09375 -23.875 "/></g></g></g><g fill="#737373" fill-opacity="1"><g transform="translate(1115.865998, 931.237052)"><g><path d="M 0 -35.484375 L 10.59375 -35.484375 L 17.296875 -15.515625 C 17.867188 -13.785156 18.257812 -11.734375 18.46875 -9.359375 L 18.65625 -9.359375 C 18.894531 -11.535156 19.351562 -13.585938 20.03125 -15.515625 L 26.59375 -35.484375 L 36.96875 -35.484375 L 21.96875 4.53125 C 20.59375 8.238281 18.628906 11.007812 16.078125 12.84375 C 13.523438 14.6875 10.546875 15.609375 7.140625 15.609375 C 5.472656 15.609375 3.832031 15.429688 2.21875 15.078125 L 2.21875 7.390625 C 3.382812 7.671875 4.65625 7.8125 6.03125 7.8125 C 7.738281 7.8125 9.234375 7.285156 10.515625 6.234375 C 11.796875 5.191406 12.796875 3.609375 13.515625 1.484375 L 14.09375 -0.25 Z M 0 -35.484375 "/></g></g></g></svg>