<svg xmlns="http://www.w3.org/2000/svg" xmlns:xlink="http://www.w3.org/1999/xlink" width="2000" zoomAndPan="magnify" viewBox="0 0 1500 1499.999933" height="2000" preserveAspectRatio="xMidYMid meet" version="1.0"><defs><g/><clipPath id="d0a8b912e9"><path d="M 822.464844 671.390625 L 979.214844 671.390625 L 979.214844 828.890625 L 822.464844 828.890625 Z M 822.464844 671.390625 " clip-rule="nonzero"/></clipPath><clipPath id="e1009ac941"><rect x="0" width="930" y="0" height="260"/></clipPath></defs><g clip-path="url(#d0a8b912e9)"><path fill="#16d5db" d="M 900.789062 828.613281 C 857.582031 828.613281 822.515625 796.699219 822.515625 757.378906 C 822.515625 737.796875 831.25 720.089844 845.324219 707.210938 L 845.390625 707.273438 C 848.234375 703.699219 852.828125 701.351562 858.046875 701.351562 C 866.6875 701.351562 873.707031 707.730469 873.707031 715.59375 C 873.707031 720.417969 871.058594 724.667969 867.027344 727.246094 L 867.082031 727.292969 C 858.625 735.042969 853.332031 745.628906 853.332031 757.378906 C 853.332031 781.082031 874.574219 800.328125 900.746094 800.328125 C 926.914062 800.328125 948.148438 781.082031 948.148438 757.378906 C 948.148438 746.652344 943.71875 736.929688 936.519531 729.414062 C 932.238281 726.871094 929.386719 722.492188 929.386719 717.496094 C 929.386719 709.628906 936.40625 703.242188 945.046875 703.242188 C 949.269531 703.242188 953.085938 704.792969 955.902344 707.273438 L 956.125 707.070312 C 970.28125 719.953125 979.050781 737.730469 979.050781 757.378906 C 979.050781 796.699219 943.996094 828.613281 900.789062 828.613281 Z M 900.777344 757.871094 C 892.105469 757.871094 885.128906 751.40625 885.128906 743.367188 L 885.128906 685.902344 C 885.128906 677.863281 892.105469 671.398438 900.777344 671.398438 C 909.449219 671.398438 916.441406 677.863281 916.441406 685.902344 L 916.441406 743.367188 C 916.441406 751.40625 909.449219 757.871094 900.777344 757.871094 Z M 900.777344 757.871094 " fill-opacity="1" fill-rule="evenodd"/></g><g transform="matrix(1, 0, 0, 1, 36, 620)"><g clip-path="url(#e1009ac941)"><g fill="#0f172a" fill-opacity="1"><g transform="translate(1.107855, 204.347128)"><g><path d="M 36.65625 -50.265625 L 36.65625 -27.59375 L 95.390625 -27.59375 L 95.390625 0 L 5.90625 0 L 5.90625 -128.109375 L 95.390625 -128.109375 L 95.390625 -100.515625 L 36.65625 -100.515625 L 36.65625 -77.859375 L 86.53125 -77.859375 L 86.53125 -50.265625 Z M 36.65625 -50.265625 "/></g></g></g><g fill="#0f172a" fill-opacity="1"><g transform="translate(102.41009, 204.347128)"><g><path d="M 36.65625 -27.59375 L 98.34375 -27.59375 L 98.34375 0 L 5.90625 0 L 5.90625 -128.109375 L 36.65625 -128.109375 Z M 36.65625 -27.59375 "/></g></g></g><g fill="#0f172a" fill-opacity="1"><g transform="translate(203.121069, 204.347128)"><g><path d="M 36.65625 -50.265625 L 36.65625 -27.59375 L 95.390625 -27.59375 L 95.390625 0 L 5.90625 0 L 5.90625 -128.109375 L 95.390625 -128.109375 L 95.390625 -100.515625 L 36.65625 -100.515625 L 36.65625 -77.859375 L 86.53125 -77.859375 L 86.53125 -50.265625 Z M 36.65625 -50.265625 "/></g></g></g><g fill="#0f172a" fill-opacity="1"><g transform="translate(295.160244, 204.347128)"><g><path d="M 114.515625 -16.15625 C 102.023438 -5.78125 87.765625 -0.59375 71.734375 -0.59375 C 53.609375 -0.59375 38.109375 -7.03125 25.234375 -19.90625 C 12.347656 -32.78125 5.90625 -48.285156 5.90625 -66.421875 C 5.90625 -84.679688 12.347656 -100.25 25.234375 -113.125 C 38.109375 -126.007812 53.609375 -132.453125 71.734375 -132.453125 C 87.898438 -132.453125 102.160156 -127.191406 114.515625 -116.671875 L 94.796875 -97.171875 C 88.097656 -102.296875 80.410156 -104.859375 71.734375 -104.859375 C 61.222656 -104.859375 52.222656 -101.113281 44.734375 -93.625 C 37.242188 -86.132812 33.5 -77.066406 33.5 -66.421875 C 33.5 -55.910156 37.242188 -46.910156 44.734375 -39.421875 C 52.222656 -31.929688 61.222656 -28.1875 71.734375 -28.1875 C 80.410156 -28.1875 88.097656 -30.75 94.796875 -35.875 Z M 114.515625 -16.15625 "/></g></g></g><g fill="#0f172a" fill-opacity="1"><g transform="translate(414.594428, 204.347128)"><g><path d="M 103.28125 -97.359375 L 69.96875 -97.359375 L 69.96875 0 L 39.21875 0 L 39.21875 -97.359375 L 5.90625 -97.359375 L 5.90625 -128.109375 L 103.28125 -128.109375 Z M 103.28125 -97.359375 "/></g></g></g><g fill="#0f172a" fill-opacity="1"><g transform="translate(522.006305, 204.347128)"><g><path d="M 112.9375 -84.359375 C 112.9375 -76.078125 110.832031 -68.390625 106.625 -61.296875 C 101.5 -52.890625 94.273438 -47.039062 84.953125 -43.75 L 112.546875 0 L 78.046875 0 L 51.25 -40.796875 L 36.65625 -40.796875 L 36.65625 0 L 5.90625 0 L 5.90625 -128.109375 L 67.203125 -128.109375 C 81.796875 -128.109375 93.359375 -123.3125 101.890625 -113.71875 C 109.253906 -105.3125 112.9375 -95.523438 112.9375 -84.359375 Z M 36.65625 -100.515625 L 36.65625 -68.390625 L 67.015625 -68.390625 C 71.210938 -68.390625 74.5625 -68.984375 77.0625 -70.171875 C 79.164062 -71.347656 80.675781 -72.460938 81.59375 -73.515625 C 82.90625 -75.085938 83.890625 -76.925781 84.546875 -79.03125 C 85.078125 -80.875 85.34375 -82.648438 85.34375 -84.359375 C 85.34375 -86.191406 85.078125 -88.03125 84.546875 -89.875 C 83.765625 -91.976562 82.648438 -93.816406 81.203125 -95.390625 C 78.304688 -98.804688 73.640625 -100.515625 67.203125 -100.515625 Z M 36.65625 -100.515625 "/></g></g></g><g fill="#0f172a" fill-opacity="1"><g transform="translate(636.907474, 204.347128)"><g><path d="M 68.984375 -127.515625 C 87.242188 -127.515625 102.8125 -121.078125 115.6875 -108.203125 C 128.570312 -95.328125 135.015625 -79.757812 135.015625 -61.5 C 135.015625 -43.226562 128.570312 -27.65625 115.6875 -14.78125 C 102.8125 -1.90625 87.242188 4.53125 68.984375 4.53125 C 50.722656 4.53125 35.148438 -1.90625 22.265625 -14.78125 C 9.390625 -27.65625 2.953125 -43.226562 2.953125 -61.5 C 2.953125 -79.757812 9.390625 -95.328125 22.265625 -108.203125 C 35.148438 -121.078125 50.722656 -127.515625 68.984375 -127.515625 Z M 96.1875 -34.296875 C 103.675781 -41.785156 107.421875 -50.851562 107.421875 -61.5 C 107.421875 -72.132812 103.675781 -81.195312 96.1875 -88.6875 C 88.695312 -96.175781 79.628906 -99.921875 68.984375 -99.921875 C 58.335938 -99.921875 49.269531 -96.175781 41.78125 -88.6875 C 34.289062 -81.195312 30.546875 -72.132812 30.546875 -61.5 C 30.546875 -50.851562 34.289062 -41.785156 41.78125 -34.296875 C 49.53125 -26.804688 58.597656 -23.0625 68.984375 -23.0625 C 79.359375 -23.0625 88.425781 -26.804688 96.1875 -34.296875 Z M 96.1875 -34.296875 "/></g></g></g><g fill="#0f172a" fill-opacity="1"><g transform="translate(774.879698, 204.347128)"><g/></g></g><g fill="#0f172a" fill-opacity="1"><g transform="translate(826.122071, 204.347128)"><g/></g></g><g fill="#0f172a" fill-opacity="1"><g transform="translate(877.364444, 204.347128)"><g/></g></g></g></g><g fill="#737373" fill-opacity="1"><g transform="translate(979.112229, 821.999909)"><g><path d="M 60.484375 -107.609375 L 60.484375 0 L 44.21875 0 L 44.21875 -107.609375 L 3.625 -107.609375 L 3.625 -122.375 L 101.0625 -122.375 L 101.0625 -107.609375 Z M 60.484375 -107.609375 "/></g></g></g><g fill="#737373" fill-opacity="1"><g transform="translate(1083.798011, 821.999909)"><g><path d="M 16.09375 0 L 16.09375 -122.375 L 90.90625 -122.375 L 90.90625 -107.609375 L 32.453125 -107.609375 L 32.453125 -71.890625 L 82.40625 -71.890625 L 82.40625 -57.03125 L 32.453125 -57.03125 L 32.453125 -14.859375 L 90.90625 -14.859375 L 90.90625 0 Z M 16.09375 0 "/></g></g></g><g fill="#737373" fill-opacity="1"><g transform="translate(1185.742865, 821.999909)"><g><path d="M 109.90625 -21.40625 C 106.019531 -15.15625 102.054688 -10.421875 98.015625 -7.203125 C 93.984375 -3.992188 89.285156 -1.566406 83.921875 0.078125 C 78.554688 1.734375 72.242188 2.5625 64.984375 2.5625 C 46.648438 2.5625 33.132812 -2.726562 24.4375 -13.3125 C 15.75 -23.894531 11.40625 -39.851562 11.40625 -61.1875 C 11.40625 -82.46875 15.722656 -98.410156 24.359375 -109.015625 C 32.992188 -119.628906 46.300781 -124.9375 64.28125 -124.9375 C 71.414062 -124.9375 77.78125 -124.050781 83.375 -122.28125 C 88.976562 -120.519531 93.710938 -118.09375 97.578125 -115 C 101.441406 -111.90625 104.960938 -107.554688 108.140625 -101.953125 L 94.703125 -93.109375 C 92.109375 -97.472656 89.484375 -100.789062 86.828125 -103.0625 C 84.179688 -105.332031 81 -107.128906 77.28125 -108.453125 C 73.570312 -109.773438 69.238281 -110.4375 64.28125 -110.4375 C 52.019531 -110.4375 43.015625 -106.351562 37.265625 -98.1875 C 31.523438 -90.03125 28.65625 -77.695312 28.65625 -61.1875 C 28.65625 -44.914062 31.484375 -32.640625 37.140625 -24.359375 C 42.796875 -16.078125 51.90625 -11.9375 64.46875 -11.9375 C 71.414062 -11.9375 77.453125 -13.304688 82.578125 -16.046875 C 87.710938 -18.785156 92.316406 -23.515625 96.390625 -30.234375 Z M 109.90625 -21.40625 "/></g></g></g><g fill="#737373" fill-opacity="1"><g transform="translate(1302.541782, 821.999909)"><g><path d="M 88.15625 0 L 88.15625 -55.96875 L 32.453125 -55.96875 L 32.453125 0 L 16.09375 0 L 16.09375 -122.375 L 32.453125 -122.375 L 32.453125 -70.828125 L 88.15625 -70.828125 L 88.15625 -122.375 L 104.515625 -122.375 L 104.515625 0 Z M 88.15625 0 "/></g></g></g></svg>